<svg id="headphones" xmlns="http://www.w3.org/2000/svg" width="51.197" height="58.251" viewBox="0 0 51.197 58.251">
  <g id="Groupe_2336" data-name="Groupe 2336" transform="translate(6.826 23.892)">
    <g id="Groupe_2335" data-name="Groupe 2335">
      <path id="Tracé_949" data-name="Tracé 949" d="M96.12,210A5.125,5.125,0,0,0,91,215.12V229a5.12,5.12,0,1,0,10.239,0V215.12A5.125,5.125,0,0,0,96.12,210Z" transform="translate(-91 -210)" fill="#49a010"/>
    </g>
  </g>
  <g id="Groupe_2338" data-name="Groupe 2338" transform="translate(0 27.574)">
    <g id="Groupe_2337" data-name="Groupe 2337">
      <path id="Tracé_950" data-name="Tracé 950" d="M34.413,243.8a8.467,8.467,0,0,1,.145-1.437A5.109,5.109,0,0,0,31,247.217v7.054a5.109,5.109,0,0,0,3.559,4.851,8.467,8.467,0,0,1-.145-1.437Z" transform="translate(-31 -242.366)" fill="#49a010"/>
    </g>
  </g>
  <g id="Groupe_2340" data-name="Groupe 2340" transform="translate(20.479 23.892)">
    <g id="Groupe_2339" data-name="Groupe 2339">
      <path id="Tracé_951" data-name="Tracé 951" d="M229.772,210a5.125,5.125,0,0,0-5.12,5.12V229a5.125,5.125,0,0,0,5.12,5.12,5.05,5.05,0,0,0,1.467-.24,5.109,5.109,0,0,1-4.88,3.653h-5.434a5.12,5.12,0,1,0,0,3.413h5.434a8.543,8.543,0,0,0,8.533-8.533V215.12A5.125,5.125,0,0,0,229.772,210Z" transform="translate(-211 -210)" fill="#49a010"/>
    </g>
  </g>
  <g id="Groupe_2342" data-name="Groupe 2342" transform="translate(47.639 27.574)">
    <g id="Groupe_2341" data-name="Groupe 2341">
      <path id="Tracé_952" data-name="Tracé 952" d="M449.722,242.366a8.466,8.466,0,0,1,.145,1.437v13.88a8.466,8.466,0,0,1-.145,1.437,5.109,5.109,0,0,0,3.559-4.851v-7.054A5.109,5.109,0,0,0,449.722,242.366Z" transform="translate(-449.722 -242.366)" fill="#49a010"/>
    </g>
  </g>
  <g id="Groupe_2344" data-name="Groupe 2344" transform="translate(0)">
    <g id="Groupe_2343" data-name="Groupe 2343">
      <path id="Tracé_953" data-name="Tracé 953" d="M56.6,0A25.627,25.627,0,0,0,31,25.6v.044a8.45,8.45,0,0,1,3.491-1.585,22.159,22.159,0,0,1,44.215,0A8.453,8.453,0,0,1,82.2,25.642V25.6A25.627,25.627,0,0,0,56.6,0Z" transform="translate(-31)" fill="#49a010"/>
    </g>
  </g>
</svg>
